<?xml version="1.0" encoding="UTF-8"?>
<svg version="1.1" xmlns="http://www.w3.org/2000/svg" width="500" height="500">
<path d="M0 0 C8.85040353 5.98100955 11.29353861 13.63089855 13.41992188 23.78662109 C14.17430479 28.42552333 14.11613349 32.97380492 13.9765625 37.66015625 C13.95307739 38.50512665 13.92959229 39.35009705 13.90539551 40.22067261 C13.79602805 43.71520948 13.67016233 47.20703032 13.48583984 50.69848633 C12.82753327 63.94721427 14.29143057 70.82277562 23 81 C27.9765568 88.48612437 32.02988292 96.51953413 35 105 C38.05254372 103.83562765 40.8450636 102.58865942 43.625 100.875 C47 99 47 99 50 99 C50.33 98.34 50.66 97.68 51 97 C54.4375 95.8125 54.4375 95.8125 58 95 C58.66 95.33 59.32 95.66 60 96 C60 97.32 60 98.64 60 100 C58.35451172 100.81404297 58.35451172 100.81404297 56.67578125 101.64453125 C55.22130061 102.3670797 53.7668765 103.08974196 52.3125 103.8125 C51.59126953 104.16892578 50.87003906 104.52535156 50.12695312 104.89257812 C47.04436362 106.426835 44.04926524 107.97001535 41.10546875 109.76171875 C39 111 39 111 37 111 C37.99 113.64 38.98 116.28 40 119 C40.69222656 118.66226563 41.38445312 118.32453125 42.09765625 117.9765625 C51.7797855 113.56283823 61.33561683 111.77740377 72 112 C71.625 114.4375 71.625 114.4375 71 117 C68.12475236 118.43762382 65.31959559 118.42335423 62.125 118.75 C54.8255653 119.59064286 48.62221482 121.76904975 42 125 C42.14049518 126.47968324 42.28754826 127.95874516 42.4375 129.4375 C42.51871094 130.26121094 42.59992188 131.08492187 42.68359375 131.93359375 C42.78930815 133.98662025 42.78930815 133.98662025 44 135 C46.48694301 135.04788338 48.9518201 135.04173141 51.4375 135 C68.72413924 134.88256098 68.72413924 134.88256098 71.76171875 137.54296875 C72.17035156 138.02378906 72.57898438 138.50460938 73 139 C72.67 139.99 72.34 140.98 72 142 C68.55594408 143.14801864 67.13357907 142.78208793 63.625 142.0625 C57.04085571 140.86318765 50.67309769 140.80626491 44 141 C44.33773438 142.0415625 44.67546875 143.083125 45.0234375 144.15625 C47.80644186 153.01438734 49.66280645 161.34044898 50.34765625 170.609375 C51.09624034 174.50021927 52.51471333 175.9963397 55 179 C55.75 182.3125 55.75 182.3125 56 185 C56.59014893 185.01981934 57.18029785 185.03963867 57.78833008 185.06005859 C60.46350096 185.15534659 63.13789498 185.26500939 65.8125 185.375 C66.74126953 185.4059375 67.67003906 185.436875 68.62695312 185.46875 C69.51962891 185.50742188 70.41230469 185.54609375 71.33203125 185.5859375 C72.15421143 185.6173584 72.9763916 185.6487793 73.82348633 185.68115234 C76 186 76 186 79 188 C78.67 189.32 78.34 190.64 78 192 C70.74 191.67 63.48 191.34 56 191 C56 193.64 56 196.28 56 199 C57.00160156 199.18175781 58.00320313 199.36351562 59.03515625 199.55078125 C60.37768391 199.80426549 61.72012743 200.05819568 63.0625 200.3125 C63.71927734 200.43044922 64.37605469 200.54839844 65.05273438 200.66992188 C69.7074553 201.5641786 73.69919063 203.00339539 78 205 C77.67 206.32 77.34 207.64 77 209 C69.84404654 208.29843593 62.98144819 206.69214979 56 205 C58.71965299 208.5532631 62.59059113 209.42132182 66.6875 210.6875 C67.38939453 210.91244141 68.09128906 211.13738281 68.81445312 211.36914062 C70.54036743 211.92096357 72.26985433 212.46159058 74 213 C74.33 214.65 74.66 216.3 75 218 C70.73493961 219.4216868 67.79962257 217.65386682 63.8125 216.0625 C63.06291016 215.77181641 62.31332031 215.48113281 61.54101562 215.18164062 C59.69075523 214.46274964 57.84493352 213.73245347 56 213 C55.67 213.66 55.34 214.32 55 215 C55.70640625 215.27070313 56.4128125 215.54140625 57.140625 215.8203125 C60.0976694 217.0402953 62.91395067 218.39565535 65.75 219.875 C66.71421875 220.36742187 67.6784375 220.85984375 68.671875 221.3671875 C71 223 71 223 71.828125 225.1953125 C71.88484375 225.79085937 71.9415625 226.38640625 72 227 C68.07871478 228.3058334 66.02168909 227.38030356 62.31640625 225.59960938 C61.63449219 225.25736328 60.95257813 224.91511719 60.25 224.5625 C59.20392578 224.05493164 59.20392578 224.05493164 58.13671875 223.53710938 C56.41931879 222.70193542 54.70894262 221.85234576 53 221 C54.90079431 226.11840395 59.30651871 228.17955816 63.6640625 231.09765625 C64.82035156 232.03931641 64.82035156 232.03931641 66 233 C66 233.99 66 234.98 66 236 C63 237 63 237 60.66015625 235.85546875 C59.80292969 235.30503906 58.94570313 234.75460937 58.0625 234.1875 C55.09242621 232.30152554 52.17910796 230.51210472 49 229 C50.14003235 232.42009706 51.22170198 233.28869442 53.9375 235.5625 C56.03343963 237.33130568 58.05994888 239.05994888 60 241 C59.625 243.625 59.625 243.625 59 246 C54.30234629 244.71882171 51.78197339 242.00472107 48.55078125 238.55859375 C47.06489775 236.89969455 47.06489775 236.89969455 45 236 C44.70867187 237.05058594 44.41734375 238.10117187 44.1171875 239.18359375 C39.66422436 254.67296388 31.9300406 265.12238496 19.625 275.6875 C14.93564919 279.85985716 12.34963656 283.11251553 11.76953125 289.5625 C11.59155265 295.6646235 12.4552559 301.11066312 14 307 C12.68 306.67 11.36 306.34 10 306 C10 305.34 10 304.68 10 304 C9.01 303.67 8.02 303.34 7 303 C5.3125 300.4375 5.3125 300.4375 4 298 C3.33924493 309.55097753 4.80190858 321.95195307 10.23046875 332.30078125 C11 334 11 334 11 337 C9.02 336.34 7.04 335.68 5 335 C5 342.14163377 9.75522129 348.55797601 14 354 C14.81791016 354.80824219 14.81791016 354.80824219 15.65234375 355.6328125 C17 357 17 357 17 358 C9.28501794 357.75507993 5.10201227 355.58923199 -1 351 C-0.92998779 351.6813501 -0.85997559 352.3627002 -0.7878418 353.06469727 C-0.04231092 361.0005471 0.18624315 368.89676103 0.18530273 376.86303711 C0.18749384 378.93168607 0.20574865 380.99980362 0.22460938 383.06835938 C0.30951092 403.38097816 0.30951092 403.38097816 -3 410 C-5.03125 410.44921875 -5.03125 410.44921875 -7.5 410.6875 C-8.3146875 410.77386719 -9.129375 410.86023438 -9.96875 410.94921875 C-10.6390625 410.96597656 -11.309375 410.98273438 -12 411 C-13.6085029 409.3914971 -13.33543801 407.53212353 -13.53515625 405.30859375 C-13.62216797 404.36435547 -13.70917969 403.42011719 -13.79882812 402.44726562 C-13.88583984 401.45404297 -13.97285156 400.46082031 -14.0625 399.4375 C-14.15337891 398.44041016 -14.24425781 397.44332031 -14.33789062 396.41601562 C-14.56258568 393.94437007 -14.78179998 391.47222741 -15 389 C-15.33 392.96 -15.66 396.92 -16 401 C-16.66 401 -17.32 401 -18 401 C-19.98 392.585 -19.98 392.585 -22 384 C-21.7834375 385.36253906 -21.566875 386.72507812 -21.34375 388.12890625 C-21.06222333 389.94006118 -20.78098878 391.75126154 -20.5 393.5625 C-20.35691406 394.45775391 -20.21382813 395.35300781 -20.06640625 396.27539062 C-19.30261453 401.24003683 -18.73022337 405.97541029 -19 411 C-20 412 -20 412 -22.5 412.125 C-25 412 -25 412 -26 411 C-26.35507775 409.41912075 -26.65810362 407.82646282 -26.9375 406.23046875 C-27.11023438 405.25916016 -27.28296875 404.28785156 -27.4609375 403.28710938 C-27.63882812 402.26423828 -27.81671875 401.24136719 -28 400.1875 C-28.35299791 398.18078364 -28.7071217 396.17426492 -29.0625 394.16796875 C-29.21847656 393.27360107 -29.37445313 392.3792334 -29.53515625 391.45776367 C-29.94744296 389.2778843 -30.4354708 387.14477383 -31 385 C-30.855625 386.02738281 -30.71125 387.05476563 -30.5625 388.11328125 C-30.37462229 389.51297019 -30.18714409 390.91271279 -30 392.3125 C-29.85691406 393.31893555 -29.85691406 393.31893555 -29.7109375 394.34570312 C-28.93585125 400.24189497 -28.90058427 406.05921946 -29 412 C-33.16665169 412.02926019 -37.33327659 412.04688594 -41.5 412.0625 C-43.25957031 412.07506836 -43.25957031 412.07506836 -45.0546875 412.08789062 C-61.57897681 412.13430717 -61.57897681 412.13430717 -65.65234375 408.8828125 C-66.40644531 407.97273438 -67.16054688 407.06265625 -67.9375 406.125 C-68.76894531 405.13886719 -69.60039062 404.15273438 -70.45703125 403.13671875 C-71.08279053 402.36400635 -71.08279053 402.36400635 -71.72119141 401.57568359 C-73.00399403 399.99507876 -74.31564438 398.44322482 -75.63671875 396.89453125 C-82 389.3325157 -82 389.3325157 -82 387 C-82.66 387 -83.32 387 -84 387 C-85.55078125 385.27734375 -85.55078125 385.27734375 -87.3125 382.9375 C-87.92867187 382.1228125 -88.54484375 381.308125 -89.1796875 380.46875 C-91.48931101 377.33638507 -93.76363316 374.18512853 -96 371 C-90.57819804 382.32287924 -82.02710071 391.92090825 -73.66015625 401.1640625 C-68 407.42352941 -68 407.42352941 -68 410 C-95.57384102 409.41782677 -123.11331393 399.56162862 -146.89257812 386.18212891 C-149.42485301 384.76168463 -151.99337398 383.41488156 -154.5625 382.0625 C-174.92693024 370.83140376 -194.71415319 358.38490081 -213 344 C-213.57975586 343.54439697 -214.15951172 343.08879395 -214.75683594 342.61938477 C-218.89163502 339.28639316 -218.89163502 339.28639316 -219.875 336.6875 C-219.91625 336.130625 -219.9575 335.57375 -220 335 C-217.69348105 334.19047145 -216.4789435 333.81180952 -214.16333008 334.72167969 C-213.22589966 335.31577637 -213.22589966 335.31577637 -212.26953125 335.921875 C-211.55700195 336.3653125 -210.84447266 336.80875 -210.11035156 337.265625 C-209.35206055 337.75546875 -208.59376953 338.2453125 -207.8125 338.75 C-206.63059082 339.4925 -206.63059082 339.4925 -205.42480469 340.25 C-199.12601353 344.22343098 -192.87225969 348.27525519 -186.65942383 352.38183594 C-182.87045483 354.8708921 -179.07576905 356.99907193 -175 359 C-172.30910627 360.5217814 -169.65601329 362.10581896 -167 363.6875 C-165.47158253 364.58892899 -163.94293387 365.48996607 -162.4140625 366.390625 C-159.79909972 367.93384501 -157.1901783 369.48552239 -154.5859375 371.046875 C-138.12626495 380.73845835 -120.49043177 388.37932498 -103 396 C-111.56264992 391.34522613 -120.20133336 386.88339549 -128.9375 382.5625 C-141.53134349 376.31129777 -153.66950699 369.45629343 -165.69116211 362.17456055 C-171.03742905 358.94566946 -176.49567747 355.95067782 -182 353 C-188.8453106 349.30937881 -188.8453106 349.30937881 -190 347 C-191.65608041 346.30745404 -193.32476695 345.6448383 -195 345 C-198.51867242 343.00668698 -201.90590609 340.80345316 -205.3125 338.625 C-206.28783691 338.00302734 -207.26317383 337.38105469 -208.26806641 336.74023438 C-216.19800728 331.62783439 -223.78969083 326.16893052 -231.2253418 320.36621094 C-233.11068122 318.91479266 -235.02911043 317.51438923 -236.94921875 316.109375 C-241.20595663 312.92246849 -245.08014175 309.40448804 -248.9375 305.75 C-249.63190186 305.09612305 -250.32630371 304.44224609 -251.04174805 303.76855469 C-255.69450326 299.34667174 -260.09830982 294.80784641 -264.30078125 289.953125 C-265.80536989 288.22371277 -267.35727165 286.59723741 -269 285 C-269.309375 285.78375 -269.61875 286.5675 -269.9375 287.375 C-271 290 -271 290 -272 292 C-270.60907108 294.62387135 -270.60907108 294.62387135 -269 297 C-268.67 296.01 -268.34 295.02 -268 294 C-265.9375 293.3125 -265.9375 293.3125 -264 293 C-260.08858058 297.38934205 -256.30197813 301.84935506 -252.625 306.4375 C-249.02521222 310.86989175 -245.208136 314.90510825 -241.1171875 318.8828125 C-239.1312075 320.8687925 -237.31106459 322.91759862 -235.5 325.0625 C-231.70392162 329.48103004 -227.40868506 333.20791425 -223 337 C-222.38640625 337.55171875 -221.7728125 338.1034375 -221.140625 338.671875 C-216.91146587 342.46727422 -212.51610829 346.0361564 -208.0625 349.5625 C-207.50151611 350.00956299 -206.94053223 350.45662598 -206.36254883 350.91723633 C-201.74407575 354.54352919 -196.92085885 357.79969934 -192 361 C-191.27192139 361.47445557 -190.54384277 361.94891113 -189.79370117 362.43774414 C-181.14212645 368.03842448 -172.41833275 373.42810599 -163.375 378.375 C-153.55479905 383.76262559 -153.55479905 383.76262559 -149.375 386.375 C-148.36566406 387.00535156 -148.36566406 387.00535156 -147.3359375 387.6484375 C-146 389 -146 389 -146 393 C-152.22252583 391.83646045 -157.75568519 390.08171865 -163.5 387.4375 C-164.26828125 387.08888916 -165.0365625 386.74027832 -165.828125 386.38110352 C-177.84310312 380.85337921 -189.35684109 374.88437976 -200 367 C-201.33376391 366.0762807 -202.66993242 365.15602871 -204.0078125 364.23828125 C-214.66560144 356.84951711 -224.02807189 348.65948783 -233.296875 339.60595703 C-235.42529383 337.59897036 -237.70931457 335.81730385 -240 334 C-241.1606886 332.78306657 -242.28800407 331.53318543 -243.375 330.25 C-245.23178313 328.07083035 -247.08857371 325.90158477 -249.00390625 323.7734375 C-249.64199219 323.06445312 -250.28007812 322.35546875 -250.9375 321.625 C-251.81728516 320.65433594 -251.81728516 320.65433594 -252.71484375 319.6640625 C-254 318 -254 318 -254 316 C-254.66 316 -255.32 316 -256 316 C-248.63400529 325.59745782 -240.59349966 334.51491254 -231.96484375 342.98828125 C-231.28558838 343.65641846 -230.60633301 344.32455566 -229.90649414 345.01293945 C-228.5783897 346.3119951 -227.24319056 347.60384704 -225.90014648 348.88745117 C-222.66416029 352.0438113 -220.24050866 354.51377688 -219 359 C-235.86845226 354.90814772 -252.08197044 336.35641072 -262.8125 323.3125 C-263.60269531 322.35988281 -264.39289063 321.40726562 -265.20703125 320.42578125 C-267 318 -267 318 -267 316 C-267.66 316 -268.32 316 -269 316 C-270.7265625 313.8125 -270.7265625 313.8125 -272.625 311 C-273.25664062 310.071875 -273.88828125 309.14375 -274.5390625 308.1875 C-275.26222656 307.1046875 -275.26222656 307.1046875 -276 306 C-277.81242323 310.0188515 -279.33501617 313.61110675 -280 318 C-280.66 318 -281.32 318 -282 318 C-285.08772011 308.80576198 -286.91300199 300.75864421 -286 291 C-285.67 290.34 -285.34 289.68 -285 289 C-284.95977609 286.6670134 -284.95679753 284.33293334 -285 282 C-284.34 282 -283.68 282 -283 282 C-282.67 277.38 -282.34 272.76 -282 268 C-282.886875 268.639375 -283.77375 269.27875 -284.6875 269.9375 C-287.69211428 271.80829757 -289.5510371 272.59423966 -293 273 C-293.33 272.34 -293.66 271.68 -294 271 C-293.34 271 -292.68 271 -292 271 C-292 270.34 -292 269.68 -292 269 C-291.25492187 268.42894531 -290.50984375 267.85789062 -289.7421875 267.26953125 C-286.6007885 264.66959846 -285.10213758 262.24388647 -283.125 258.6875 C-282.78911865 258.08373535 -282.4532373 257.4799707 -282.10717773 256.85791016 C-275.30549088 244.91027549 -275.30549088 244.91027549 -271 232 C-272.03060547 232.54140625 -272.03060547 232.54140625 -273.08203125 233.09375 C-273.98308594 233.5578125 -274.88414062 234.021875 -275.8125 234.5 C-276.70582031 234.9640625 -277.59914063 235.428125 -278.51953125 235.90625 C-281 237 -281 237 -284 237 C-284.495 237.99 -284.495 237.99 -285 239 C-286.32 238.34 -287.64 237.68 -289 237 C-288.56429687 236.59910156 -288.12859375 236.19820312 -287.6796875 235.78515625 C-281.57417722 229.95716917 -277.13159858 223.84215442 -274 216 C-273.01979625 214.9805881 -272.02196992 213.97753644 -271 213 C-270.67 212.01 -270.34 211.02 -270 210 C-269.34 210 -268.68 210 -268 210 C-266.87024167 206.68604223 -265.82115227 203.40297337 -265 200 C-265.91523438 200.37253906 -266.83046875 200.74507812 -267.7734375 201.12890625 C-268.96195313 201.60199219 -270.15046875 202.07507813 -271.375 202.5625 C-272.55835938 203.03816406 -273.74171875 203.51382813 -274.9609375 204.00390625 C-278 205 -278 205 -280 204 C-278.7957401 199.03242789 -275.71880119 196.88826591 -271.96484375 193.765625 C-269.41933812 191.47821239 -267.75399946 188.92333243 -266 186 C-265.5359375 185.40058594 -265.071875 184.80117187 -264.59375 184.18359375 C-262.74359142 181.64869511 -261.29404897 179.01555807 -259.8125 176.25 C-258.884375 174.5175 -257.95625 172.785 -257 171 C-260.96 171.99 -264.92 172.98 -269 174 C-269.33 173.01 -269.66 172.02 -270 171 C-269.13375 170.38125 -269.13375 170.38125 -268.25 169.75 C-264.15075768 166.56170042 -261.66387975 163.99163926 -260 159 C-259.34 159 -258.68 159 -258 159 C-257.71125 158.2575 -257.4225 157.515 -257.125 156.75 C-256.17697356 154.43260203 -255.15154089 152.22082885 -254 150 C-254.804375 150.165 -255.60875 150.33 -256.4375 150.5 C-260.60174676 151.08445568 -264.80672789 151.49480611 -269 151 C-269.66 150.34 -270.32 149.68 -271 149 C-270.071875 148.566875 -270.071875 148.566875 -269.125 148.125 C-266.86674235 147.06279958 -266.86674235 147.06279958 -265 145 C-264.278125 144.29875 -263.55625 143.5975 -262.8125 142.875 C-256.28398433 136.66780078 -256.28398433 136.66780078 -252 129 C-250.70896357 127.6256709 -249.3743291 126.29103643 -248 125 C-247.34 124.34 -246.68 123.68 -246 123 C-250.29 123 -254.58 123 -259 123 C-256.3643555 120.3643555 -253.91403137 118.07639787 -251.0625 115.75 C-247.1370432 112.26726389 -243.65855813 109.08682046 -242 104 C-242.22903997 101.68838585 -242.22903997 101.68838585 -243.0390625 99.265625 C-243.32982666 98.2972168 -243.62059082 97.32880859 -243.92016602 96.33105469 C-246.30674915 88.96896101 -248.78646529 81.63948337 -251.31420898 74.32470703 C-255.20096854 63.05221433 -258.42563137 52.34931769 -258.125 40.3125 C-258.11597656 39.59900391 -258.10695313 38.88550781 -258.09765625 38.15039062 C-258.07460993 36.43343983 -258.03877041 34.7166677 -258 33 C-257.34 32.67 -256.68 32.34 -256 32 C-255.86722656 31.22527344 -255.73445313 30.45054688 -255.59765625 29.65234375 C-254.87663757 26.45252884 -253.94598249 25.60953953 -251.4375 23.5625 C-250.71175781 22.96953125 -249.98601562 22.3765625 -249.23828125 21.765625 C-248.13033203 20.89164063 -248.13033203 20.89164063 -247 20 C-246.35417969 19.45859375 -245.70835937 18.9171875 -245.04296875 18.359375 C-231.04964405 7.07351638 -211.98771594 5.53061608 -194.68408203 7.22705078 C-181.25920344 8.83940116 -168.00410429 12.1243282 -156.34375 19.1796875 C-151.05946734 21.02918643 -145.2833559 18.61234616 -140.125 17.0625 C-115.29731995 9.625507 -88.5306976 10.55661511 -63.56640625 17.09765625 C-60.38254061 17.90321262 -57.24576664 18.51338584 -54 19 C-54 19.66 -54 20.32 -54 21 C-53.01 21 -52.02 21 -51 21 C-51 20.34 -51 19.68 -51 19 C-49.62457434 18.07158768 -48.24351039 17.15076067 -46.83984375 16.265625 C-44.7626805 14.83674837 -42.93926411 13.2453684 -41.0625 11.5625 C-31.33681766 2.93188495 -31.33681766 2.93188495 -25 2 C-24.67 1.34 -24.34 0.68 -24 0 C-15.59086571 -3.51186068 -8.22852729 -4.40813962 0 0 Z M-12 11.8125 C-17.03476973 19.83666425 -18.96659143 30.72729272 -17 40 C-14.48509259 43.18894791 -11.44310507 44.92034331 -8 47 C-6.4523719 48.28079567 -4.92949214 49.59230494 -3.4375 50.9375 C-2.77621094 51.52402344 -2.11492187 52.11054687 -1.43359375 52.71484375 C-0.72396484 53.35099609 -0.72396484 53.35099609 0 54 C3.01669657 50.98330343 2.320563 48.07748604 2.38012695 43.94848633 C2.82767019 26.72029081 2.82767019 26.72029081 -4.5625 11.6875 C-7.73844198 9.48877094 -9.07090171 9.15800467 -12 11.8125 Z M-238.7421875 31.40625 C-240.41301301 33.18493696 -240.41301301 33.18493696 -240 37 C-240.99 37 -241.98 37 -243 37 C-242.59579069 42.65893033 -240.79663015 45.02257794 -237 49 C-236.01 49.66 -235.02 50.32 -234 51 C-236.97 50.67 -239.94 50.34 -243 50 C-239.30620592 56.08867157 -235.6249793 60.61251614 -230 65 C-234.455 65.495 -234.455 65.495 -239 66 C-237.43503097 70.71405046 -235.85850715 75.42305469 -234.24609375 80.12109375 C-233.64318094 81.89321276 -233.04031677 83.66534832 -232.4375 85.4375 C-232.13392578 86.31470703 -231.83035156 87.19191406 -231.51757812 88.09570312 C-228.58340666 96.77036692 -226.70808961 104.94492854 -226.875 114.125 C-226.89304687 115.42695313 -226.91109375 116.72890625 -226.9296875 118.0703125 C-226.95289063 119.03710938 -226.97609375 120.00390625 -227 121 C-227.99 121.495 -227.99 121.495 -229 122 C-226.03 122.99 -223.06 123.98 -220 125 C-221.36125 125.515625 -222.7225 126.03125 -224.125 126.5625 C-229.07326481 128.72785443 -231.89155848 131.66037183 -235 136 C-230.68659457 135.38379922 -227.21860559 134.40620186 -223 133 C-228.28 138.28 -233.56 143.56 -239 149 C-235.91926653 149 -234.86670766 148.61175432 -232.20703125 147.25 C-231.49482422 146.8890625 -230.78261719 146.528125 -230.04882812 146.15625 C-228.9418457 145.58390625 -228.9418457 145.58390625 -227.8125 145 C-227.06291016 144.6184375 -226.31332031 144.236875 -225.54101562 143.84375 C-223.69126501 142.90120191 -221.84526538 141.95129907 -220 141 C-222.74035714 143.78258867 -225.47054141 146.47249242 -228.5 148.9375 C-231.76859089 151.70543145 -234.42838208 154.5711761 -237 158 C-237 158.66 -237 159.32 -237 160 C-232.32894208 158.44298069 -228.91294315 155.91552627 -225 153 C-226.28893222 155.7974997 -227.68050991 157.96616563 -229.75 160.2421875 C-230.2759375 160.83386719 -230.801875 161.42554688 -231.34375 162.03515625 C-232.44403746 163.25740954 -233.54818799 164.47619673 -234.65625 165.69140625 C-237.85114386 169.30132308 -239.82672388 172.20423387 -241 177 C-240.25556641 176.43732422 -240.25556641 176.43732422 -239.49609375 175.86328125 C-235.04258476 172.50836081 -230.54995902 169.22288764 -226 166 C-226.33 167.32 -226.66 168.64 -227 170 C-227.66 170 -228.32 170 -229 170 C-230.29332611 171.62912802 -230.29332611 171.62912802 -231.53125 173.76171875 C-232.01207031 174.55126953 -232.49289063 175.34082031 -232.98828125 176.15429688 C-233.48714844 176.99025391 -233.98601562 177.82621094 -234.5 178.6875 C-234.99886719 179.50412109 -235.49773437 180.32074219 -236.01171875 181.16210938 C-238.35374164 185.03931885 -240.39199795 188.75287858 -242 193 C-236.81031041 189.44135571 -232.56619068 185.67709899 -228.54296875 180.83203125 C-227.11882895 179.14109057 -225.56324255 177.56324255 -224 176 C-224.99 180.62 -225.98 185.24 -227 190 C-222.82046901 185.99249003 -222.82046901 185.99249003 -219.82421875 181.58203125 C-219.47544678 180.97262695 -219.1266748 180.36322266 -218.76733398 179.73535156 C-218.41098877 179.10081055 -218.05464355 178.46626953 -217.6875 177.8125 C-214.49512954 172.31011613 -211.08766706 167.31981737 -206.99609375 162.4296875 C-203.4506299 158.11407396 -200.24684515 153.54212912 -197 149 C-200.06890187 147.46554906 -202.70094266 148.45015711 -206 149 C-204.64800681 147.64800681 -203.24143016 146.35916492 -201.83984375 145.05859375 C-201.21142578 144.47529297 -200.58300781 143.89199219 -199.93554688 143.29101562 C-198.94651367 142.37352539 -198.94651367 142.37352539 -197.9375 141.4375 C-197.27427734 140.82197266 -196.61105469 140.20644531 -195.92773438 139.57226562 C-194.28531497 138.04800589 -192.64272992 136.52392507 -191 135 C-193.78918149 133.89459074 -193.78918149 133.89459074 -196 134 C-194.35 131.36 -192.7 128.72 -191 126 C-195.95 126.99 -195.95 126.99 -201 128 C-200.01 127.01 -199.02 126.02 -198 125 C-198 124.34 -198 123.68 -198 123 C-197.14148438 122.60167969 -197.14148438 122.60167969 -196.265625 122.1953125 C-193.8923988 120.94323109 -191.87786714 119.5063648 -189.75 117.875 C-189.04359375 117.33617187 -188.3371875 116.79734375 -187.609375 116.2421875 C-187.07828125 115.83226562 -186.5471875 115.42234375 -186 115 C-189.27185553 113.92689142 -191.42947592 114.10736898 -194.75 114.9375 C-195.54921875 115.13214844 -196.3484375 115.32679688 -197.171875 115.52734375 C-198.07679688 115.76130859 -198.07679688 115.76130859 -199 116 C-178.74654944 104.44920398 -156.6202815 103.74206466 -134 108 C-134 108.66 -134 109.32 -134 110 C-135.21623047 109.94779297 -135.21623047 109.94779297 -136.45703125 109.89453125 C-149.78685996 109.56865651 -164.29009731 112.88989525 -174.41015625 122.22265625 C-175.19712891 123.10244141 -175.19712891 123.10244141 -176 124 C-175.34773438 123.86722656 -174.69546875 123.73445313 -174.0234375 123.59765625 C-173.14945312 123.42105469 -172.27546875 123.24445313 -171.375 123.0625 C-170.08722656 122.80146484 -170.08722656 122.80146484 -168.7734375 122.53515625 C-167.40058594 122.27025391 -167.40058594 122.27025391 -166 122 C-165.0409375 121.814375 -164.081875 121.62875 -163.09375 121.4375 C-159.72883722 120.96165375 -156.52174712 120.90283932 -153.125 120.9375 C-151.39636719 120.95103516 -151.39636719 120.95103516 -149.6328125 120.96484375 C-148.32957031 120.98224609 -148.32957031 120.98224609 -147 121 C-147.97839844 121.44730469 -148.95679688 121.89460938 -149.96484375 122.35546875 C-160.65412188 127.2694518 -170.35910574 131.82999916 -179 140 C-176.93721871 141.32262176 -176.93721871 141.32262176 -174.33203125 140.14453125 C-173.17058594 139.70496094 -172.00914062 139.26539063 -170.8125 138.8125 C-160.53074302 135.11096333 -149.76247822 133.65371586 -139 132 C-139 132.66 -139 133.32 -139 134 C-139.87914062 134.12503906 -140.75828125 134.25007813 -141.6640625 134.37890625 C-158.82483872 137.57394538 -173.58873381 149.4216725 -185 162 C-184.34 162.33 -183.68 162.66 -183 163 C-180.35810148 161.6911142 -177.81396337 160.32335852 -175.25 158.875 C-164.69790238 153.11666858 -154.23931779 148.31021312 -142 148 C-143.19625 148.474375 -144.3925 148.94875 -145.625 149.4375 C-159.29228435 155.55237604 -175.69380131 166.33597171 -184 179 C-184 179.99 -184 180.98 -184 182 C-182.7315625 181.20335937 -182.7315625 181.20335937 -181.4375 180.390625 C-156.80230512 165 -156.80230512 165 -145 165 C-145.72703125 165.40089844 -146.4540625 165.80179688 -147.203125 166.21484375 C-154.95283179 170.59640874 -162.00995688 175.47298916 -169 181 C-169.680625 181.53625 -170.36125 182.0725 -171.0625 182.625 C-175.5540219 186.31446442 -179.28043536 190.54712452 -183 195 C-183.51175781 195.6084375 -184.02351563 196.216875 -184.55078125 196.84375 C-185.70654005 198.22414924 -186.85428435 199.61125376 -188 201 C-187.34 201.33 -186.68 201.66 -186 202 C-183.7659797 201.1770143 -183.7659797 201.1770143 -181.265625 199.8671875 C-180.30470947 199.3925708 -179.34379395 198.9179541 -178.35375977 198.42895508 C-177.32951904 197.9161499 -176.30527832 197.40334473 -175.25 196.875 C-166.64112818 192.64794946 -158.15443238 188.8716677 -149 186 C-150.30538867 187.30538867 -151.75550776 188.31521693 -153.24609375 189.40625 C-161.18494335 195.25718886 -168.86420645 201.16870228 -176 208 C-176.64324219 208.60328125 -177.28648437 209.2065625 -177.94921875 209.828125 C-182.14403906 213.86825563 -185.63397671 218.25304408 -189 223 C-185.29828436 224.23390521 -184.0339114 223.30354205 -180.65405273 221.6484375 C-179.94321533 221.29007813 -179.23237793 220.93171875 -178.5 220.5625 C-171.89186324 217.33330214 -165.22717688 214.32838907 -158.4375 211.5 C-157.59832031 211.1501001 -156.75914062 210.8002002 -155.89453125 210.43969727 C-153.93091419 209.62350736 -151.96564738 208.81128805 -150 208 C-150.69738281 208.54269531 -151.39476562 209.08539063 -152.11328125 209.64453125 C-155.82689108 212.67471626 -159.30263018 215.92570511 -162.80273438 219.19726562 C-166.79319311 222.89659656 -166.79319311 222.89659656 -169 224 C-169 224.66 -169 225.32 -169 226 C-169.59780273 226.26731934 -170.19560547 226.53463867 -170.81152344 226.81005859 C-173.03475455 228.01889711 -174.33135396 229.17171852 -176.015625 231.0390625 C-176.54414063 231.61914062 -177.07265625 232.19921875 -177.6171875 232.796875 C-178.15601563 233.40015625 -178.69484375 234.0034375 -179.25 234.625 C-180.08144531 235.54152344 -180.08144531 235.54152344 -180.9296875 236.4765625 C-182.2917841 237.97956565 -183.64661601 239.4891468 -185 241 C-184.67 241.66 -184.34 242.32 -184 243 C-183.50822266 242.73372803 -183.01644531 242.46745605 -182.50976562 242.19311523 C-171.5352579 236.27406494 -160.51165803 230.795201 -149 226 C-149.845625 226.7734375 -150.69125 227.546875 -151.5625 228.34375 C-157.8412458 234.10304787 -164.05454982 239.89289105 -170 246 C-169.34 246.33 -168.68 246.66 -168 247 C-165.53254214 245.99865695 -165.53254214 245.99865695 -162.7734375 244.47265625 C-161.7421875 243.92802734 -160.7109375 243.38339844 -159.6484375 242.82226562 C-158.56820312 242.24154297 -157.48796875 241.66082031 -156.375 241.0625 C-155.28703125 240.48564453 -154.1990625 239.90878906 -153.078125 239.31445312 C-150.38154938 237.88337571 -147.68915031 236.44496841 -145 235 C-149.69933221 240.50777047 -154.59797823 245.72758873 -159.75 250.8125 C-160.40871094 251.46669922 -161.06742187 252.12089844 -161.74609375 252.79492188 C-162.9607373 254.00094219 -164.17641678 255.20592091 -165.39355469 256.40942383 C-166.93403197 257.93468363 -168.4684181 259.46581337 -170 261 C-160.27224945 258.37087823 -151.52206546 252.21306391 -143 247 C-144.397341 250.11288838 -146.07023925 252.36895011 -148.375 254.875 C-151.26740303 258.09951612 -153.70649592 261.33039347 -156 265 C-151.64029169 263.65150163 -147.68658562 261.95092154 -143.625 259.875 C-142.56539063 259.33617187 -141.50578125 258.79734375 -140.4140625 258.2421875 C-139.61742187 257.83226562 -138.82078125 257.42234375 -138 257 C-139.98739486 261.48464494 -143.10930111 264.91624818 -146.22265625 268.66015625 C-148.16393637 270.95510357 -148.16393637 270.95510357 -149 274 C-142.65660349 272.19389405 -137.43061745 269.74372266 -132 266 C-133.16763633 269.95199987 -134.46414855 272.7725527 -137 276 C-137 276.66 -137 277.32 -137 278 C-129.67932572 275.40234138 -123.16516489 271.83163777 -118 266 C-119.39759905 262.45481116 -119.39759905 262.45481116 -121 259 C-123.31 259.33 -125.62 259.66 -128 260 C-127.505 259.278125 -127.01 258.55625 -126.5 257.8125 C-124.92080715 254.85151341 -124.71821688 253.28746971 -125 250 C-128.96 250.99 -128.96 250.99 -133 252 C-132.4946875 251.21753906 -131.989375 250.43507813 -131.46875 249.62890625 C-130.8190625 248.61699219 -130.169375 247.60507812 -129.5 246.5625 C-128.8503125 245.55316406 -128.200625 244.54382813 -127.53125 243.50390625 C-125.91304681 241.34698182 -125.91304681 241.34698182 -126 240 C-127.27875 239.979375 -128.5575 239.95875 -129.875 239.9375 C-130.95394531 239.92009766 -130.95394531 239.92009766 -132.0546875 239.90234375 C-134.08185404 239.87350758 -134.08185404 239.87350758 -136 241 C-134.02 237.7 -132.04 234.4 -130 231 C-130.99 231 -131.98 231 -133 231 C-128.57033314 222.27855475 -123.49649434 219.19550326 -114.62109375 216.15625 C-113.42613281 215.7746875 -112.23117188 215.393125 -111 215 C-109.85660156 214.6184375 -108.71320313 214.236875 -107.53515625 213.84375 C-106.28025391 213.42609375 -106.28025391 213.42609375 -105 213 C-105.30035156 213.84304688 -105.60070312 214.68609375 -105.91015625 215.5546875 C-106.29042969 216.65039062 -106.67070312 217.74609375 -107.0625 218.875 C-107.44535156 219.96554687 -107.82820312 221.05609375 -108.22265625 222.1796875 C-109.31707847 224.9231762 -109.31707847 224.9231762 -108 227 C-106.35 226.01 -104.7 225.02 -103 224 C-105.475 229.445 -105.475 229.445 -108 235 C-106.68 234.67 -105.36 234.34 -104 234 C-104.33 235.98 -104.66 237.96 -105 240 C-102.69 239.01 -100.38 238.02 -98 237 C-98.42152344 237.77085937 -98.84304687 238.54171875 -99.27734375 239.3359375 C-99.82519531 240.33882812 -100.37304688 241.34171875 -100.9375 242.375 C-101.48277344 243.37273437 -102.02804688 244.37046875 -102.58984375 245.3984375 C-103.4149759 246.92070346 -104.22564391 248.45128783 -105 250 C-101.7 249.01 -98.4 248.02 -95 247 C-95.77001227 250.85006136 -96.3261142 253.00776573 -98.0625 256.3125 C-98.42472656 257.00988281 -98.78695312 257.70726562 -99.16015625 258.42578125 C-99.43730469 258.94527344 -99.71445313 259.46476563 -100 260 C-94.73829306 258.58832253 -91.27828642 256.25149768 -87 253 C-87 256.01490557 -87.51952735 257.86864114 -88.5 260.6875 C-88.7784375 261.49574219 -89.056875 262.30398438 -89.34375 263.13671875 C-89.5603125 263.75160156 -89.776875 264.36648438 -90 265 C-85.90694544 263.34703566 -82.41016497 261.86453858 -79 259 C-79.33 261.97 -79.66 264.94 -80 268 C-75.94718288 266.77472971 -72.55639236 265.30119506 -69 263 C-69.99 265.97 -69.99 265.97 -71 269 C-70.2575 268.690625 -69.515 268.38125 -68.75 268.0625 C-66.49307824 267.1905075 -64.3549847 266.52332993 -62 266 C-62.33 267.32 -62.66 268.64 -63 270 C-61.35153231 269.55123384 -59.70626545 269.09069512 -58.0625 268.625 C-57.14597656 268.36976563 -56.22945312 268.11453125 -55.28515625 267.8515625 C-52.83254913 267.23339896 -52.83254913 267.23339896 -52 265 C-53.16015625 264.56300781 -53.16015625 264.56300781 -54.34375 264.1171875 C-65.48608373 259.7319621 -72.06238174 254.75602568 -79 245 C-78.34 245 -77.68 245 -77 245 C-77 244.34 -77 243.68 -77 243 C-76.42024414 242.71914551 -75.84048828 242.43829102 -75.24316406 242.14892578 C-73.12179615 241.06238275 -71.12604448 239.88573766 -69.109375 238.6171875 C-68.04589844 237.95009766 -68.04589844 237.95009766 -66.9609375 237.26953125 C-66.23132813 236.80933594 -65.50171875 236.34914063 -64.75 235.875 C-64.00492188 235.40707031 -63.25984375 234.93914062 -62.4921875 234.45703125 C-60.66043497 233.30631492 -58.8300793 232.15337556 -57 231 C-57.33 230.34 -57.66 229.68 -58 229 C-65.42946502 232.82798655 -72.52549498 236.66000039 -79 242 C-80.85329634 239.22005549 -81.68563605 237.21743449 -82.625 234.0625 C-82.88539063 233.20785156 -83.14578125 232.35320312 -83.4140625 231.47265625 C-84 229 -84 229 -84 225 C-72.615 220.545 -72.615 220.545 -61 216 C-61 215.01 -61 214.02 -61 213 C-63.87694456 213.93184053 -66.75146556 214.87024801 -69.625 215.8125 C-70.43324219 216.07353516 -71.24148438 216.33457031 -72.07421875 216.60351562 C-72.86699219 216.86455078 -73.65976562 217.12558594 -74.4765625 217.39453125 C-75.19924316 217.63018799 -75.92192383 217.86584473 -76.66650391 218.10864258 C-79.53043293 219.20261672 -82.25790316 220.62895158 -85 222 C-84.67 217.38 -84.34 212.76 -84 208 C-80.8753125 207.566875 -80.8753125 207.566875 -77.6875 207.125 C-75.12452069 206.75329002 -72.56201467 206.37830156 -70 206 C-68.91976562 205.84402344 -67.83953125 205.68804687 -66.7265625 205.52734375 C-65.76492188 205.37394531 -64.80328125 205.22054687 -63.8125 205.0625 C-62.95269531 204.92972656 -62.09289062 204.79695312 -61.20703125 204.66015625 C-58.71343332 203.9142836 -57.65153565 202.97431135 -56 201 C-57.12277344 201.13277344 -58.24554688 201.26554688 -59.40234375 201.40234375 C-66.93244232 202.29140125 -74.46225511 203.17770056 -82 204 C-81.01 201.03 -81.01 201.03 -80 198 C-81.32 197.67 -82.64 197.34 -84 197 C-79.05 193.37 -74.1 189.74 -69 186 C-70.32 185.34 -71.64 184.68 -73 184 C-71.71802734 183.70996094 -71.71802734 183.70996094 -70.41015625 183.4140625 C-69.30542969 183.15367187 -68.20070313 182.89328125 -67.0625 182.625 C-65.96035156 182.36976563 -64.85820312 182.11453125 -63.72265625 181.8515625 C-62.82417969 181.57054687 -61.92570313 181.28953125 -61 181 C-60.67 180.34 -60.34 179.68 -60 179 C-63.96 178.01 -63.96 178.01 -68 177 C-66.90042969 176.75765625 -65.80085937 176.5153125 -64.66796875 176.265625 C-56.21121621 174.36230517 -48.05549254 172.27091274 -40 169 C-42.85224736 168.17966337 -44.68014548 168.02267152 -47.75 168.125 C-52.86027701 168.16306538 -57.66353442 167.16092801 -61.5078125 163.60546875 C-62.75177695 162.13431319 -63.88019273 160.56773017 -65 159 C-65.9973321 157.66466991 -66.99678342 156.33091483 -68 155 C-76.26896154 158.31699453 -83.81683833 161.64113336 -91 167 C-90.01 167.99 -89.02 168.98 -88 170 C-93.94 172.475 -93.94 172.475 -100 175 C-96.68455701 176.10514766 -93.79589889 176.32107631 -90.3125 176.5625 C-89.13300781 176.64628906 -87.95351563 176.73007813 -86.73828125 176.81640625 C-85.83464844 176.87699219 -84.93101562 176.93757812 -84 177 C-85.2375 177.268125 -86.475 177.53625 -87.75 177.8125 C-91.10283779 178.63881995 -93.41095936 179.62671274 -96 182 C-93.69 182.33 -91.38 182.66 -89 183 C-89.969375 183.37125 -90.93875 183.7425 -91.9375 184.125 C-96.65188668 186.13441072 -100.92029307 188.91015393 -105 192 C-105 192.33 -105 192.66 -105 193 C-103.02 193.33 -101.04 193.66 -99 194 C-99.48210937 194.44730469 -99.96421875 194.89460937 -100.4609375 195.35546875 C-105.30796815 199.95594955 -105.30796815 199.95594955 -108 206 C-106.02 205.67 -104.04 205.34 -102 205 C-103.65863903 208.83801357 -104.68651515 209.86898635 -108.6171875 211.51171875 C-110.03106745 211.9226689 -111.45073932 212.31411274 -112.875 212.6875 C-114.28953104 213.08557841 -115.70360571 213.48528258 -117.1171875 213.88671875 C-117.78331055 214.07153809 -118.44943359 214.25635742 -119.13574219 214.44677734 C-121.49094366 215.14568862 -123.74376282 216.03114521 -126 217 C-126.33 215.68 -126.66 214.36 -127 213 C-128.98 213.33 -130.96 213.66 -133 214 C-132.59007812 213.46890625 -132.18015625 212.9378125 -131.7578125 212.390625 C-131.21898437 211.68421875 -130.68015625 210.9778125 -130.125 210.25 C-129.59132813 209.55390625 -129.05765625 208.8578125 -128.5078125 208.140625 C-127.10761086 206.15277397 -126.02144735 204.20156614 -125 202 C-126.98 202.66 -128.96 203.32 -131 204 C-129.92053155 201.95628726 -128.83623945 199.91512199 -127.75 197.875 C-127.14671875 196.73804688 -126.5434375 195.60109375 -125.921875 194.4296875 C-124.08430863 191.1504532 -122.12589064 188.09477 -120 185 C-122.31 185 -124.62 185 -127 185 C-121.95110892 180.51209682 -116.67732654 176.53512306 -111.16015625 172.63671875 C-110.44730469 172.09660156 -109.73445312 171.55648437 -109 171 C-109 170.67 -109 170.34 -109 170 C-112.63 169.67 -116.26 169.34 -120 169 C-114.19623036 164.76610248 -108.52522047 161.0209354 -102 158 C-102 157.67 -102 157.34 -102 157 C-107.94 157 -113.88 157 -120 157 C-116.40861807 154.30646355 -114.7685426 153.43119713 -110.625 152.375 C-109.70976562 152.13523438 -108.79453125 151.89546875 -107.8515625 151.6484375 C-102.49503242 150.43037723 -97.56355255 149.89507377 -92.0625 150.0078125 C-90.10183594 150.03294922 -90.10183594 150.03294922 -88.1015625 150.05859375 C-86.0476182 150.08953552 -83.99408939 150.12513312 -81.94042969 150.17138672 C-79.93969878 150.21396564 -77.93856619 150.23610468 -75.9375 150.2578125 C-74.75027344 150.2798877 -73.56304687 150.30196289 -72.33984375 150.32470703 C-66.04125918 149.71234464 -62.08233261 146.68267564 -58 142 C-58 141.34 -58 140.68 -58 140 C-57.401875 139.855625 -56.80375 139.71125 -56.1875 139.5625 C-54.43849596 139.1127561 -52.71322977 138.57107659 -51 138 C-45.2730452 137.43275876 -40.92164406 137.75618914 -36 141 C-31.02349121 145.21089205 -27.57386235 150.60549079 -24 156 C-23.5359375 156.680625 -23.071875 157.36125 -22.59375 158.0625 C-21.4375 159.875 -21.4375 159.875 -20 163 C-21.20043282 166.72964664 -23.7141945 168.74472468 -26.625 171.25 C-29.96243214 174.16905087 -33.16588452 177.12716837 -36.25 180.3125 C-38.52263383 182.63584168 -40.68381705 184.58572495 -43.4375 186.3125 C-46.27846354 187.80474002 -46.27846354 187.80474002 -47 191 C-47.99 191.66 -48.98 192.32 -50 193 C-49.34 193.66 -48.68 194.32 -48 195 C-48.804375 195.2475 -49.60875 195.495 -50.4375 195.75 C-51.283125 196.1625 -52.12875 196.575 -53 197 C-53.33 198.32 -53.66 199.64 -54 201 C-48.06 200.67 -42.12 200.34 -36 200 C-36.33 200.99 -36.66 201.98 -37 203 C-38.27617187 203.19335938 -39.55234375 203.38671875 -40.8671875 203.5859375 C-42.53652576 203.84853004 -44.20579301 204.11157431 -45.875 204.375 C-46.71675781 204.50132812 -47.55851563 204.62765625 -48.42578125 204.7578125 C-49.23144531 204.88671875 -50.03710938 205.015625 -50.8671875 205.1484375 C-51.61081543 205.26364746 -52.35444336 205.37885742 -53.12060547 205.49755859 C-55.22614355 205.89248323 -55.22614355 205.89248323 -57 208 C-57.16687448 210.58354218 -57.16687448 210.58354218 -57 213 C-55.89140625 212.71125 -54.7828125 212.4225 -53.640625 212.125 C-52.17714757 211.74974938 -50.71360232 211.37476322 -49.25 211 C-48.52039063 210.80921875 -47.79078125 210.6184375 -47.0390625 210.421875 C-43.55428354 209.53484036 -40.61876278 209 -37 209 C-37 209.66 -37 210.32 -37 211 C-43.6 213.31 -50.2 215.62 -57 218 C-57.73960026 225.49152482 -57.73960026 225.49152482 -55 229 C-53.99582031 228.40832031 -52.99164063 227.81664062 -51.95703125 227.20703125 C-43.50535278 222.29937071 -35.27829764 218.16161169 -26 215 C-25.67 215.99 -25.34 216.98 -25 218 C-26.08796875 218.49628906 -27.1759375 218.99257813 -28.296875 219.50390625 C-37.1591519 223.58688021 -45.68482388 227.87310914 -54 233 C-53.34 233.99 -52.68 234.98 -52 236 C-51.09290283 235.51587646 -51.09290283 235.51587646 -50.16748047 235.02197266 C-47.40583824 233.55152904 -44.64047804 232.08821589 -41.875 230.625 C-40.92367187 230.11710938 -39.97234375 229.60921875 -38.9921875 229.0859375 C-34.40782656 226.66641367 -30.01925215 224.40268663 -25 223 C-25 224.32 -25 225.64 -25 227 C-25.71542969 227.26425781 -26.43085938 227.52851563 -27.16796875 227.80078125 C-35.41970174 231.29496336 -42.52217961 236.89340141 -49 243 C-48.34 243.66 -47.68 244.32 -47 245 C-46.20980469 244.31035156 -45.41960937 243.62070312 -44.60546875 242.91015625 C-37.75805568 237.13587603 -30.86996 232.57256556 -22.75 228.75 C-21.91621826 228.35562744 -21.08243652 227.96125488 -20.22338867 227.55493164 C-15.81372656 225.55799181 -15.81372656 225.55799181 -14 225 C-13.34 225.33 -12.68 225.66 -12 226 C-12 226.66 -12 227.32 -12 228 C-13.64821244 229.03013277 -15.31503702 230.03114628 -17 231 C-17 231.33 -17 231.66 -17 232 C-0.50208396 232.92800778 12.6713311 228.97032208 27 221 C27 220.34 27 219.68 27 219 C27.99 218.67 28.98 218.34 30 218 C31.50275341 214.99449319 31.58765005 213.33001693 31 210 C28.57598616 207.90079198 25.82051124 206.50156714 23 205 C17.25531915 201.38297872 17.25531915 201.38297872 15 198 C14.01015262 191.93718479 16.07841815 188.16444475 19.3203125 183.234375 C24.69644784 176.08286473 32.6604552 175.50797248 41 174 C37.763799 170.15154476 34.46060173 166.42062358 30.99658203 162.77441406 C16.65447143 147.52890188 16.65447143 147.52890188 16.4375 137.5 C16.59493947 133.64019361 16.81143931 132.28284104 19 129 C21.625 128.8125 21.625 128.8125 24 129 C25.98 132.96 25.98 132.96 28 137 C29.485 136.505 29.485 136.505 31 136 C31.22577402 130.5814234 30.46670113 126.22512279 29 121 C27.515 121.495 27.515 121.495 26 122 C25.690625 122.66 25.38125 123.32 25.0625 124 C24.711875 124.66 24.36125 125.32 24 126 C21.93359375 126.625 21.93359375 126.625 20 127 C24 117 24 117 25.234375 114.54296875 C26.74035055 109.54097852 23.99910225 104.60939499 22 100 C19.98106036 96.87671052 19.98106036 96.87671052 18 95 C16.0435533 95.23315057 16.0435533 95.23315057 14 96 C8.57523995 106.8495201 11.54573666 117.68241256 14 129 C14.33 129.99 14.66 130.98 15 132 C14.34 132 13.68 132 13 132 C8.00806829 119.74503251 3.77568516 106.92330513 9 94 C9.721875 93.13375 10.44375 92.2675 11.1875 91.375 C13.24531908 89.24865287 13.24531908 89.24865287 12.78515625 87.15625 C10.31218369 80.36480297 5.78091325 74.34337363 1 69 C-0.3357457 72.77371512 0.27591329 75.85831347 0.9375 79.75 C1.13214844 80.92046875 1.32679688 82.0909375 1.52734375 83.296875 C1.76130859 84.63492188 1.76130859 84.63492188 2 86 C1.34 86 0.68 86 0 86 C-0.27972656 85.05640625 -0.55945313 84.1128125 -0.84765625 83.140625 C-4.47778834 71.33728914 -8.73886332 60.53879429 -19 53 C-17.74377218 57.06041408 -16.21305076 60.64456615 -14.1875 64.375 C-11.67068449 69.30968987 -9.77190282 74.22822864 -8.125 79.5 C-7.90996826 80.18239746 -7.69493652 80.86479492 -7.47338867 81.56787109 C-6.4714814 84.89872611 -6 87.48402624 -6 91 C-6.66 91 -7.32 91 -8 91 C-8.43699219 89.58460938 -8.43699219 89.58460938 -8.8828125 88.140625 C-13.65996778 73.02088892 -21.96999131 51.29721455 -36.3125 42.625 C-37.199375 42.08875 -38.08625 41.5525 -39 41 C-37.94017391 43.12946539 -36.87007152 45.25236109 -35.78125 47.3671875 C-33.49659485 51.83898204 -31.40220081 56.15603358 -30 61 C-33.89580602 59.70139799 -34.28644372 58.23396724 -36.375 54.75 C-39.71723198 49.56891921 -43.3821668 45.22199313 -47.75 40.875 C-48.30478027 40.3190918 -48.85956055 39.76318359 -49.43115234 39.19042969 C-52.09322514 36.59834793 -54.5129739 34.3711122 -58 33 C-56.93425273 35.39793136 -55.79343331 37.25690647 -54.140625 39.3125 C-41 55.81021898 -41 55.81021898 -41 63 C-41.66 63 -42.32 63 -43 63 C-44.64131283 60.69556078 -46.17626711 58.3876241 -47.6875 56 C-53.14286924 47.43411336 -53.14286924 47.43411336 -60 40 C-60.66 40 -61.32 40 -62 40 C-62.33 39.01 -62.66 38.02 -63 37 C-65.08744972 35.1070193 -65.08744972 35.1070193 -67.5625 33.3125 C-68.80193359 32.37857422 -68.80193359 32.37857422 -70.06640625 31.42578125 C-71.02353516 30.72001953 -71.02353516 30.72001953 -72 30 C-72.66 30.33 -73.32 30.66 -74 31 C-72.63676257 33.0399719 -72.63676257 33.0399719 -71 35 C-70.34 35 -69.68 35 -69 35 C-68.75507813 35.55558594 -68.51015625 36.11117187 -68.2578125 36.68359375 C-66.2393385 40.40084555 -63.40142872 43.43959057 -60.6796875 46.66015625 C-59 49 -59 49 -59 52 C-63.32317575 48.33649139 -67.44437128 44.58477102 -71.375 40.5 C-77.67726362 34.13254054 -84.57324366 29.11423604 -93 26 C-93 26.66 -93 27.32 -93 28 C-90.18490007 30.2773501 -90.18490007 30.2773501 -87 30 C-86.7421875 30.5775 -86.484375 31.155 -86.21875 31.75 C-84.89762128 34.18900687 -83.37738995 35.96350921 -81.5 38 C-79.15048057 40.54863125 -77.41641768 42.8272244 -76 46 C-79.56078599 44.44319124 -82.18396339 42.27088852 -85.125 39.75 C-93.33705974 32.96659873 -102.69461073 25.86347305 -113.8515625 26.046875 C-116.25897815 26.27744439 -118.6191065 26.57954434 -121 27 C-118.34614066 28.76923956 -115.92697557 29.84546176 -112.96069336 30.95336914 C-103.90094355 34.34555787 -95.85077458 38.62908846 -88.4375 44.9375 C-86.27770623 47.21531408 -86.27770623 47.21531408 -84 47 C-84 47.66 -84 48.32 -84 49 C-83.34 49 -82.68 49 -82 49 C-80.66666667 51.66666667 -79.33333333 54.33333333 -78 57 C-82.24790925 54.23885899 -86.27587945 51.29562926 -90.265625 48.171875 C-91.92733517 46.81338086 -91.92733517 46.81338086 -94 47 C-94 46.34 -94 45.68 -94 45 C-106.55048218 37.5016187 -119.39181116 32.45081327 -134 31 C-134 35.34103409 -131.39120971 37.6033966 -128.75 40.8125 C-127.76347043 42.02559476 -126.77906743 43.24042223 -125.796875 44.45703125 C-125.31001221 45.05281982 -124.82314941 45.6486084 -124.3215332 46.26245117 C-123 48 -123 48 -121.27734375 51.1015625 C-117.90978399 55.38754765 -113.65090386 57.20550132 -108.8125 59.5625 C-106.98514929 60.47941764 -105.15832153 61.39737828 -103.33203125 62.31640625 C-102.44201416 62.76024658 -101.55199707 63.20408691 -100.63500977 63.66137695 C-88.41621686 69.86870036 -88.41621686 69.86870036 -84 74 C-84 74.66 -84 75.32 -84 76 C-88.76884584 74.57886929 -92.97881443 72.52625351 -97.3125 70.125 C-106.25395103 64.58624312 -106.25395103 64.58624312 -116 62 C-115.835 63.03125 -115.67 64.0625 -115.5 65.125 C-114.6972525 71.38869178 -114.92034062 77.69805789 -115 84 C-115.4846875 82.97261719 -115.969375 81.94523437 -116.46875 80.88671875 C-120.60106919 72.28604334 -125.02383906 64.49531109 -131 57 C-132.04414063 55.61361328 -132.04414063 55.61361328 -133.109375 54.19921875 C-133.73328125 53.47347656 -134.3571875 52.74773437 -135 52 C-135.66 52 -136.32 52 -137 52 C-137.22816406 51.42894531 -137.45632812 50.85789062 -137.69140625 50.26953125 C-145.69701035 36.38518504 -166.9667841 28.33946535 -181.65234375 23.89453125 C-199.88783576 19.60264197 -223.48073479 19.08758862 -238.7421875 31.40625 Z M22 140 C23 142 23 142 23 142 Z M28 142 C27.75015085 146.87705544 27.82118406 150.60766269 31.0703125 154.4453125 C33.3154676 156.40894345 35.58366759 158.2524303 38 160 C38.33 159.34 38.66 158.68 39 158 C36.62370911 153.85329961 36.62370911 153.85329961 33 151 C34.32 150.34 35.64 149.68 37 149 C35.88121617 147.82737096 34.75476949 146.66204862 33.625 145.5 C32.99851562 144.8503125 32.37203125 144.200625 31.7265625 143.53125 C30.13524093 141.77882569 30.13524093 141.77882569 28 142 Z M-48 147 C-48.33 148.32 -48.66 149.64 -49 151 C-46.525 151.495 -46.525 151.495 -44 152 C-44 150.68 -44 149.36 -44 148 C-45.32 147.67 -46.64 147.34 -48 147 Z M29 182 C29.33 182.66 29.66 183.32 30 184 C35.94 183.67 41.88 183.34 48 183 C47.34 182.01 46.68 181.02 46 180 C40.15969552 179.00704147 34.51857498 180.08049566 29 182 Z M39 212 C37.20474915 214.51914232 35.77280695 216.99396353 35 220 C35.34490744 222.18600325 35.34490744 222.18600325 36 224 C40.45328818 222.85486875 42.45778395 220.77047298 44.9296875 217.0859375 C46.73364391 213.57019764 47.41026277 209.88170329 48 206 C44.83575266 206 41.19039435 209.98789356 39 212 Z M28 230 C27.2265625 230.7115625 27.2265625 230.7115625 26.4375 231.4375 C23.88273325 233.07517099 22.13464031 233.32137477 19.16796875 233.625 C16.42047322 234.10024247 13.9391341 235.00358565 11.3125 235.9375 C3.52376605 238.57856268 -3.77373271 240.1146018 -12.02734375 239.94140625 C-12.91808594 239.92368164 -13.80882812 239.90595703 -14.7265625 239.88769531 C-16.50479854 239.83837104 -18.28255705 239.76432797 -20.05859375 239.66308594 C-24.58613962 239.51629441 -26.35183324 239.49030902 -30.03515625 242.38671875 C-31.9802662 244.81048174 -31.9802662 244.81048174 -33 247 C-31.02 247 -29.04 247 -27 247 C-28.32 248.32 -29.64 249.64 -31 251 C-29.68 251.33 -28.36 251.66 -27 252 C-28.0828125 252.63228516 -28.0828125 252.63228516 -29.1875 253.27734375 C-30.115625 253.82519531 -31.04375 254.37304688 -32 254.9375 C-32.928125 255.48277344 -33.85625 256.02804687 -34.8125 256.58984375 C-35.534375 257.05519531 -36.25625 257.52054687 -37 258 C-37 258.33 -37 258.66 -37 259 C-31.08824064 259.25668426 -25.81854288 258.2956568 -20.0625 257 C-19.18787109 256.80921875 -18.31324219 256.6184375 -17.41210938 256.421875 C-15.27323127 255.95436066 -13.13604065 255.48028183 -11 255 C-12.01320313 255.70576172 -12.01320313 255.70576172 -13.046875 256.42578125 C-13.93890625 257.04839844 -14.8309375 257.67101562 -15.75 258.3125 C-16.63171875 258.92738281 -17.5134375 259.54226563 -18.421875 260.17578125 C-20.64432169 261.74833065 -22.83192994 263.35368512 -25 265 C-13.97369569 264.13519182 -4.83034229 259.6967191 5 255 C3.02 257.64 1.04 260.28 -1 263 C4.10884605 261.56952311 8.01744261 259.28610306 12.375 256.375 C13.33599609 255.74464844 13.33599609 255.74464844 14.31640625 255.1015625 C15.88155698 254.07370232 17.44134314 253.03768114 19 252 C18.67 253.98 18.34 255.96 18 258 C24.9319107 253.82307945 29.3967334 250.40898316 32.25 242.5625 C33.01411029 238.93297611 33.15092413 235.69764112 33 232 C31.68 232.66 30.36 233.32 29 234 C28.505 232.02 28.505 232.02 28 230 Z M-115 269 C-115.47050781 269.54269531 -115.94101563 270.08539063 -116.42578125 270.64453125 C-117.04839844 271.35996094 -117.67101562 272.07539063 -118.3125 272.8125 C-119.23482422 273.87404297 -119.23482422 273.87404297 -120.17578125 274.95703125 C-121.73334335 276.70136739 -123.32658875 278.36778041 -125 280 C-124.67 280.66 -124.34 281.32 -124 282 C-121.68374939 280.88222229 -119.37215395 279.75625908 -117.0625 278.625 C-116.40314453 278.30789063 -115.74378906 277.99078125 -115.06445312 277.6640625 C-111.38695193 276.04522631 -111.38695193 276.04522631 -109 273 C-110.98 271.68 -112.96 270.36 -115 269 Z M-105 276 C-105.33 276.66 -105.66 277.32 -106 278 C-105.01 277.67 -104.02 277.34 -103 277 C-103.66 276.67 -104.32 276.34 -105 276 Z M-267 300 C-266 302 -266 302 -266 302 Z M-266 302 C-265.34 303.65 -264.68 305.3 -264 307 C-263.01 307 -262.02 307 -261 307 C-262.65 305.35 -264.3 303.7 -266 302 Z M-261 309 C-260 311 -260 311 -260 311 Z M-260 311 C-258.6910428 314.12197478 -258.6910428 314.12197478 -256 316 C-257.3089572 312.87802522 -257.3089572 312.87802522 -260 311 Z M-156 354 C-156 354.66 -156 355.32 -156 356 C-155.34 355.67 -154.68 355.34 -154 355 C-154.66 354.67 -155.32 354.34 -156 354 Z M-151 358 C-149.35 359.32 -147.7 360.64 -146 362 C-145.34 361.67 -144.68 361.34 -144 361 C-147.05580974 358.41222792 -147.05580974 358.41222792 -151 358 Z M-144 362 C-143.67 362.66 -143.34 363.32 -143 364 C-142.34 363.67 -141.68 363.34 -141 363 C-141.99 362.67 -142.98 362.34 -144 362 Z M-141 364 C-140.67 364.66 -140.34 365.32 -140 366 C-139.34 365.67 -138.68 365.34 -138 365 C-138.99 364.67 -139.98 364.34 -141 364 Z M-100 365 C-99 367 -99 367 -99 367 Z M-138 366 C-137.67 366.66 -137.34 367.32 -137 368 C-136.34 367.67 -135.68 367.34 -135 367 C-135.99 366.67 -136.98 366.34 -138 366 Z M-99 367 C-98.67 367.99 -98.34 368.98 -98 370 C-98 369.01 -98 368.02 -98 367 C-98.33 367 -98.66 367 -99 367 Z M-26 368 C-25 370 -25 370 -25 370 Z M-35 369 C-34 372 -34 372 -34 372 Z M-25 371 C-24 374 -24 374 -24 374 Z M-113 372 C-112 374 -112 374 -112 374 Z M-24 375 C-23 379 -23 379 -23 379 Z M-17 379 C-16 383 -16 383 -16 383 Z M-40 384 C-39.67 385.65 -39.34 387.3 -39 389 C-38.67 388.34 -38.34 387.68 -38 387 C-38.66 386.01 -39.32 385.02 -40 384 Z M-69 388 C-68 390 -68 390 -68 390 Z " fill="#010101" transform="translate(354,49)"/>
<path d="M0 0 C5.04347295 2.55544133 9.50858558 5.58612222 14 9 C14 8.34 14 7.68 14 7 C13.34 7 12.68 7 12 7 C11.34 5.35 10.68 3.7 10 2 C20.63008152 5.98628057 29.29070528 13.27864627 34.4375 23.5 C34.953125 24.655 35.46875 25.81 36 27 C34.02 26.505 34.02 26.505 32 26 C31.88539008 27.30313847 31.88539008 27.30313847 33.75 28.84765625 C34.4925 29.57855469 35.235 30.30945313 36 31.0625 C36.7425 31.79597656 37.485 32.52945313 38.25 33.28515625 C38.8275 33.85105469 39.405 34.41695312 40 35 C35.86252807 36.71317197 32.09867632 35.20968386 28 34.0625 C23.91139288 32.94035511 20.28679172 32 16 32 C16.58007812 32.24234375 17.16015625 32.4846875 17.7578125 32.734375 C22.52663192 34.78040314 26.8299688 36.89920757 31 40 C31 40.33 31 40.66 31 41 C30.32195312 40.9278125 29.64390625 40.855625 28.9453125 40.78125 C22.59319175 40.14779751 16.38285125 39.90749491 10 40 C13.63 41.32 17.26 42.64 21 44 C21 44.33 21 44.66 21 45 C20.06285156 45.1959375 19.12570313 45.391875 18.16015625 45.59375 C7.76941737 47.86189237 -2.27119448 50.89167459 -12.35522461 54.26953125 C-17.5896043 56.00315847 -22.50253255 57.47828567 -28 58 C-26.52202738 54.32943063 -24.52384523 52.58914217 -21.375 50.25 C-20.55773437 49.63640625 -19.74046875 49.0228125 -18.8984375 48.390625 C-17.95871094 47.70226562 -17.95871094 47.70226562 -17 47 C-19.27041785 45.37441681 -21.54131589 43.74951198 -23.8125 42.125 C-24.45509766 41.66480469 -25.09769531 41.20460937 -25.75976562 40.73046875 C-26.69272461 40.06337891 -26.69272461 40.06337891 -27.64453125 39.3828125 C-28.50075073 38.77010498 -28.50075073 38.77010498 -29.37426758 38.14501953 C-30.89866439 37.07137168 -32.44860985 36.0342601 -34 35 C-34 34.34 -34 33.68 -34 33 C-30.84493858 32.06380187 -28.03413498 31.8942877 -24.75 31.9375 C-23.85796875 31.94652344 -22.9659375 31.95554688 -22.046875 31.96484375 C-21.37140625 31.97644531 -20.6959375 31.98804688 -20 32 C-20.35191406 31.48953125 -20.70382813 30.9790625 -21.06640625 30.453125 C-24.1040535 25.97993166 -27.01602189 21.44055571 -29.8125 16.8125 C-30.68841797 15.36810547 -30.68841797 15.36810547 -31.58203125 13.89453125 C-33.06040539 10.87669313 -33.62089857 8.3232918 -34 5 C-31.03 5.495 -31.03 5.495 -28 6 C-29.28857013 4.68445979 -30.58095891 3.37265903 -31.875 2.0625 C-32.59429687 1.33160156 -33.31359375 0.60070312 -34.0546875 -0.15234375 C-35.87027192 -2.05667999 -35.87027192 -2.05667999 -38 -3 C-38 -3.66 -38 -4.32 -38 -5 C-25.45919852 -9.18026716 -11.61020613 -5.12291982 0 0 Z " fill="#010101" transform="translate(175,101)"/>
<path d="M0 0 C7.70382552 5.64072673 14.4360922 13.35843247 16 23 C16.81746364 31.30915577 16.18175145 37.73854711 12 45 C11.46375 46.010625 10.9275 47.02125 10.375 48.0625 C9.92125 48.701875 9.4675 49.34125 9 50 C8.34 50 7.68 50 7 50 C7.144375 49.09378906 7.28875 48.18757813 7.4375 47.25390625 C9.3368338 34.78952821 10.91713041 23.44963476 3.125 12.625 C-1.28922618 7.21893535 -5.83411382 3.47641783 -12.9375 2.6640625 C-19.28928517 2.5474272 -19.28928517 2.5474272 -25.1875 4.625 C-27.4654113 7.60984929 -28.07533779 9.23311036 -28 13 C-25.64593379 17.81048313 -22.10999287 20.75738006 -18.09375 24.13671875 C-14.72858659 27.13146305 -11.84092879 30.51177098 -9 34 C-8.41863281 34.67675781 -7.83726562 35.35351562 -7.23828125 36.05078125 C-6.82964844 36.69402344 -6.42101562 37.33726562 -6 38 C-6.33 38.99 -6.66 39.98 -7 41 C-9.64 39.02 -12.28 37.04 -15 35 C-15 35.99 -15 36.98 -15 38 C-20.66687837 36.52324992 -26.27108217 34.92910966 -31.83398438 33.10131836 C-47.39180593 28.04130439 -62.74053107 27.48903648 -79 27 C-75.42645411 22.99628604 -70.97673802 22.2743568 -65.81201172 21.79833984 C-63.51602154 21.69592587 -61.23568695 21.67136904 -58.9375 21.6875 C-57.6990332 21.69378418 -57.6990332 21.69378418 -56.43554688 21.70019531 C-44.72105305 21.91244713 -33.83963298 24.56048296 -23 29 C-23.99 28.34 -24.98 27.68 -26 27 C-26 26.34 -26 25.68 -26 25 C-26.60328125 24.74347656 -27.2065625 24.48695313 -27.828125 24.22265625 C-31.56864398 22.11693244 -33.31739315 18.86867086 -35 15 C-36.04121809 10.17403679 -35.59363147 6.3165696 -32.9375 2.125 C-24.88558155 -7.48823228 -9.97329745 -5.68899361 0 0 Z " fill="#020202" transform="translate(319,143)"/>
<path d="M0 0 C12.74156761 1.99867727 23.68438429 9.47409112 33 18 C34.21623047 19.11181641 34.21623047 19.11181641 35.45703125 20.24609375 C39.51500856 24.11929451 39.51500856 24.11929451 41 26 C41 26.99 41 27.98 41 29 C36.47208249 27.4963576 33.04516569 24.93942029 29.3125 22.0625 C22.79784871 17.14260246 16.0368743 12.82496942 8.99145508 8.70532227 C5.1896632 6.4576341 1.951841 4.35684293 -1 1 C-0.67 0.67 -0.34 0.34 0 0 Z " fill="#030303" transform="translate(233,89)"/>
<path d="M0 0 C0.77738525 0.00016113 1.55477051 0.00032227 2.35571289 0.00048828 C10.91317737 0.16600984 20.27749346 1.55999564 27.5 6.375 C27.17 7.365 26.84 8.355 26.5 9.375 C24.77073126 9.06306536 23.04158956 8.75042638 21.3125 8.4375 C20.34957031 8.26347656 19.38664062 8.08945313 18.39453125 7.91015625 C16.66442522 7.59028509 14.93738083 7.25168621 13.21875 6.875 C10.17576015 6.31536968 7.19172211 6.05924565 4.10546875 5.83984375 C2.90341797 5.75283203 1.70136719 5.66582031 0.46289062 5.57617188 C-0.78298828 5.48916016 -2.02886719 5.40214844 -3.3125 5.3125 C-5.21032227 5.17618164 -5.21032227 5.17618164 -7.14648438 5.03710938 C-10.26413257 4.81357988 -13.38195973 4.59298043 -16.5 4.375 C-15.5 2.375 -15.5 2.375 -12.46875 1.2734375 C-8.30720144 0.19490989 -4.28448354 -0.00838907 0 0 Z " fill="#010100" transform="translate(251.5,151.625)"/>
<path d="M0 0 C12.27579057 4.36472554 22.7945982 13.82391559 29.5625 24.875 C31 28 31 28 31 32 C28.20161201 31.64788495 27.14121239 31.14967908 25.17578125 29.06640625 C24.56089844 28.24011719 23.94601562 27.41382813 23.3125 26.5625 C16.69496696 17.11748687 16.69496696 17.11748687 8 10 C8 9.34 8 8.68 8 8 C7.4225 7.7525 6.845 7.505 6.25 7.25 C3.67060021 5.81700012 1.93878408 4.21575324 0 2 C0 1.34 0 0.68 0 0 Z " fill="#020201" transform="translate(286,105)"/>
<path d="M0 0 C12.14536594 -1.02878394 26.49386594 2.84308327 37 9 C38.32421875 11.15625 38.32421875 11.15625 39 13 C35.5543266 14.20832438 33.90414399 13.81777258 30.625 12.3125 C26.47310942 10.53049386 22.35882207 9.19179122 18 8 C6.31653226 4.75672043 6.31653226 4.75672043 1 2 C0.67 1.34 0.34 0.68 0 0 Z " fill="#020201" transform="translate(248,127)"/>
<path d="M0 0 C1.2578125 2.078125 1.2578125 2.078125 2 4 C-0.53998056 4.914393 -2.11784337 4.98166881 -4.8125 4.5625 C-10.64362611 3.66253624 -16.54982498 3.63343463 -22.4375 3.4375 C-23.64599609 3.39431641 -24.85449219 3.35113281 -26.09960938 3.30664062 C-29.06630606 3.20110596 -32.03307902 3.09899286 -35 3 C-34.67 2.01 -34.34 1.02 -34 0 C-24.94596991 -3.51074636 -8.94812925 -4.07082275 0 0 Z " fill="#020201" transform="translate(286,179)"/>
<path d="M0 0 C0 1.32 0 2.64 0 4 C-6.55660819 3.18159984 -12.97654958 1.80637792 -19.4375 0.4375 C-20.55060547 0.20353516 -21.66371094 -0.03042969 -22.81054688 -0.27148438 C-25.5407926 -0.84565622 -28.2705874 -1.42188308 -31 -2 C-31 -2.99 -31 -3.98 -31 -5 C-21.09671258 -8.1185833 -8.97306756 -4.48653378 0 0 Z " fill="#010100" transform="translate(277,145)"/>
<path d="M0 0 C1.27617187 -0.01836914 1.27617187 -0.01836914 2.578125 -0.03710938 C7.04118112 -0.04753708 10.57046621 0.07680648 14.625 2.1875 C14.625 3.1775 14.625 4.1675 14.625 5.1875 C11.4865007 6.23366643 9.57461697 6.22919366 6.30078125 6.06640625 C5.27275391 6.01806641 4.24472656 5.96972656 3.18554688 5.91992188 C1.57776367 5.83581055 1.57776367 5.83581055 -0.0625 5.75 C-1.14595703 5.69779297 -2.22941406 5.64558594 -3.34570312 5.59179688 C-6.02242591 5.46208784 -8.69877888 5.32712067 -11.375 5.1875 C-11.705 3.8675 -12.035 2.5475 -12.375 1.1875 C-8.23096378 -0.19384541 -4.33993462 0.00325821 0 0 Z " fill="#020202" transform="translate(258.375,188.8125)"/>
<path d="M0 0 C8.78876463 3.76661341 15.24351757 9.67615575 20 18 C20 18.66 20 19.32 20 20 C18.68 20.33 17.36 20.66 16 21 C15.19175781 20.11957031 14.38351562 19.23914063 13.55078125 18.33203125 C12.47141058 17.15880226 11.39198033 15.98562809 10.3125 14.8125 C9.78205078 14.23435547 9.25160156 13.65621094 8.70507812 13.06054688 C5.5430673 9.6269523 2.32524932 6.27589497 -1 3 C-0.67 2.01 -0.34 1.02 0 0 Z " fill="#030302" transform="translate(281,112)"/>
<path d="M0 0 C3.33296395 1.36475368 4.6274808 2.51668559 6.140625 5.7734375 C6.48867188 6.5159375 6.83671875 7.2584375 7.1953125 8.0234375 C7.71738281 9.18746094 7.71738281 9.18746094 8.25 10.375 C8.61351562 11.14328125 8.97703125 11.9115625 9.3515625 12.703125 C11.11391042 16.53258776 12 18.66928053 12 23 C10.68 23 9.36 23 8 23 C6.45984969 19.92595107 4.94637913 16.83950288 3.4375 13.75 C2.99986328 12.87730469 2.56222656 12.00460938 2.11132812 11.10546875 C1.70205078 10.26113281 1.29277344 9.41679688 0.87109375 8.546875 C0.48880615 7.77182617 0.10651855 6.99677734 -0.28735352 6.19824219 C-1.10244103 3.68400855 -0.88207936 2.45320685 0 0 Z " fill="#030302" transform="translate(329,118)"/>
<path d="M0 0 C4.03147936 1.50070487 5.44384289 3.81985395 7.625 7.4375 C8.51058594 8.88962891 8.51058594 8.88962891 9.4140625 10.37109375 C10.19910156 11.67240234 10.19910156 11.67240234 11 13 C11.99 14.485 11.99 14.485 13 16 C12.625 18.6875 12.625 18.6875 12 21 C7.48617325 19.49539108 6.1819793 16.11370387 3.75 12.1875 C3.27820313 11.46240234 2.80640625 10.73730469 2.3203125 9.99023438 C1.87945312 9.28576172 1.43859375 8.58128906 0.984375 7.85546875 C0.57928711 7.21246826 0.17419922 6.56946777 -0.24316406 5.90698242 C-1.18119775 3.54344013 -0.83563878 2.35554673 0 0 Z " fill="#030302" transform="translate(319,120)"/>
<path d="M0 0 C1.859375 0.17578125 1.859375 0.17578125 4 1 C6.85254966 6.16804521 8.63980821 12.08177409 8 18 C7.01 18 6.02 18 5 18 C4.18395001 16.0848421 3.37229368 14.16781166 2.5625 12.25 C2.11003906 11.18265625 1.65757812 10.1153125 1.19140625 9.015625 C-0.60539897 4.46764589 -0.60539897 4.46764589 -1 2 C-0.67 1.34 -0.34 0.68 0 0 Z " fill="#020202" transform="translate(335,151)"/>
<path d="M0 0 C1.32 0.33 2.64 0.66 4 1 C7.44419134 12.52164009 7.44419134 12.52164009 7 18 C6.01 18 5.02 18 4 18 C3.52014033 16.72942818 3.0411407 15.45853152 2.5625 14.1875 C2.16224609 13.12595703 2.16224609 13.12595703 1.75390625 12.04296875 C0.19329498 7.81395478 -0.08515359 4.51314033 0 0 Z " fill="#020202" transform="translate(344,151)"/>
<path d="M0 0 C1.32 0.33 2.64 0.66 4 1 C4.66 6.61 5.32 12.22 6 18 C4.68 18 3.36 18 2 18 C0.176679 11.84629161 -0.2361959 6.40353322 0 0 Z " fill="#020202" transform="translate(353,151)"/>
<path d="M0 0 C2.4375 0.75 2.4375 0.75 5 2 C5.8125 4.125 5.8125 4.125 6 6 C4.35 5.67 2.7 5.34 1 5 C0.67 3.35 0.34 1.7 0 0 Z " fill="#010100" transform="translate(280,127)"/>
<path d="M0 0 C1 4 1 4 1 4 Z " fill="#000000" transform="translate(69,326)"/>
<path d="M0 0 C2 1 2 1 2 1 Z " fill="#000000" transform="translate(423,160)"/>
<path d="" fill="#000000" transform="translate(0,0)"/>
<path d="" fill="#000000" transform="translate(0,0)"/>
<path d="" fill="#000000" transform="translate(0,0)"/>
<path d="" fill="#000000" transform="translate(0,0)"/>
<path d="" fill="#000000" transform="translate(0,0)"/>
<path d="" fill="#000000" transform="translate(0,0)"/>
<path d="" fill="#000000" transform="translate(0,0)"/>
<path d="" fill="#000000" transform="translate(0,0)"/>
<path d="" fill="#000000" transform="translate(0,0)"/>
<path d="" fill="#000000" transform="translate(0,0)"/>
<path d="" fill="#000000" transform="translate(0,0)"/>
<path d="" fill="#000000" transform="translate(0,0)"/>
<path d="" fill="#000000" transform="translate(0,0)"/>
<path d="" fill="#000000" transform="translate(0,0)"/>
<path d="" fill="#000000" transform="translate(0,0)"/>
<path d="" fill="#000000" transform="translate(0,0)"/>
<path d="" fill="#000000" transform="translate(0,0)"/>
<path d="" fill="#000000" transform="translate(0,0)"/>
<path d="" fill="#000000" transform="translate(0,0)"/>
<path d="" fill="#000000" transform="translate(0,0)"/>
<path d="" fill="#000000" transform="translate(0,0)"/>
<path d="" fill="#000000" transform="translate(0,0)"/>
<path d="" fill="#000000" transform="translate(0,0)"/>
<path d="" fill="#000000" transform="translate(0,0)"/>
<path d="" fill="#000000" transform="translate(0,0)"/>
<path d="" fill="#000000" transform="translate(0,0)"/>
<path d="" fill="#000000" transform="translate(0,0)"/>
<path d="" fill="#000000" transform="translate(0,0)"/>
<path d="" fill="#000000" transform="translate(0,0)"/>
<path d="" fill="#000000" transform="translate(0,0)"/>
<path d="" fill="#000000" transform="translate(0,0)"/>
<path d="" fill="#000000" transform="translate(0,0)"/>
<path d="" fill="#000000" transform="translate(0,0)"/>
<path d="" fill="#000000" transform="translate(0,0)"/>
<path d="" fill="#000000" transform="translate(0,0)"/>
<path d="" fill="#000000" transform="translate(0,0)"/>
<path d="" fill="#000000" transform="translate(0,0)"/>
<path d="" fill="#000000" transform="translate(0,0)"/>
<path d="" fill="#000000" transform="translate(0,0)"/>
<path d="" fill="#000000" transform="translate(0,0)"/>
<path d="" fill="#000000" transform="translate(0,0)"/>
<path d="" fill="#000000" transform="translate(0,0)"/>
<path d="" fill="#000000" transform="translate(0,0)"/>
<path d="" fill="#000000" transform="translate(0,0)"/>
<path d="" fill="#000000" transform="translate(0,0)"/>
<path d="" fill="#000000" transform="translate(0,0)"/>
<path d="" fill="#000000" transform="translate(0,0)"/>
<path d="" fill="#000000" transform="translate(0,0)"/>
<path d="" fill="#000000" transform="translate(0,0)"/>
<path d="" fill="#000000" transform="translate(0,0)"/>
<path d="" fill="#000000" transform="translate(0,0)"/>
<path d="" fill="#000000" transform="translate(0,0)"/>
<path d="" fill="#000000" transform="translate(0,0)"/>
<path d="" fill="#000000" transform="translate(0,0)"/>
<path d="" fill="#000000" transform="translate(0,0)"/>
<path d="" fill="#000000" transform="translate(0,0)"/>
</svg>
